<svg id="visual" viewBox="0 0 900 600" width="900" height="600" xmlns="http://www.w3.org/2000/svg"
    xmlns:xlink="http://www.w3.org/1999/xlink" version="1.1">
    <rect x="0" y="0" width="900" height="600" fill="transparent"></rect>
    <g transform="translate(450.1718428804716 275.5854162053616)">
        <path
            d="M19.8 -73.1C22.2 -32.9 18.5 -20.7 26.3 -13.2C34.1 -5.7 53.6 -2.8 99 26.2C144.5 55.3 216 110.7 235.1 164.8C254.2 218.9 220.8 271.8 172.9 261.7C125 251.5 62.5 178.3 22.2 139.9C-18.2 101.5 -36.3 97.9 -88 110.3C-139.7 122.6 -224.9 150.8 -238.8 135.1C-252.7 119.3 -195.3 59.7 -143.7 29.8C-92 0 -46 0 -40.7 -30.6C-35.3 -61.2 -70.7 -122.4 -70.7 -164.1C-70.7 -205.7 -35.3 -227.9 -13.3 -204.8C8.7 -181.7 17.3 -113.4 19.8 -73.1"
            fill="#007bff"></path>
    </g>
</svg>